<?xml version="1.0" encoding="UTF-8" standalone="no"?>
<!DOCTYPE svg PUBLIC "-//W3C//DTD SVG 1.1//EN" "http://www.w3.org/Graphics/SVG/1.1/DTD/svg11.dtd">
<svg width="100%" height="100%" viewBox="0 0 118 123" version="1.1" xmlns="http://www.w3.org/2000/svg" xmlns:xlink="http://www.w3.org/1999/xlink" xml:space="preserve" xmlns:serif="http://www.serif.com/" style="fill-rule:evenodd;clip-rule:evenodd;stroke-linejoin:round;stroke-miterlimit:2;">
    <path d="M75.828,108.589C75.447,110.594 74.775,112.434 73.807,114.11C72.807,115.839 71.498,117.389 69.881,118.758C68.264,120.125 66.5,121.155 64.598,121.844C62.692,122.533 60.664,122.879 58.522,122.879C56.379,122.879 54.352,122.533 52.445,121.844C50.542,121.156 48.78,120.125 47.163,118.758C45.545,117.389 44.236,115.838 43.236,114.11C42.238,112.382 41.554,110.48 41.182,108.404C41.002,107.395 41.683,106.416 42.692,106.235C42.724,106.23 43.021,106.201 43.021,106.199L74.022,106.199C74.023,106.199 74.023,106.199 74.024,106.199C75.053,106.199 75.9,107.046 75.9,108.075C75.9,108.249 75.876,108.422 75.828,108.589ZM68.398,6.868C69.919,7.265 71.396,7.747 72.828,8.312C74.934,9.143 76.966,10.149 78.904,11.319C78.98,11.366 79.054,11.416 79.127,11.467C80.954,12.585 82.689,13.847 84.316,15.239C86.003,16.69 87.565,18.28 88.986,19.993L88.998,20.006L89,20.006C90.412,21.718 91.679,23.545 92.787,25.468C93.905,27.406 94.863,29.431 95.654,31.524L95.658,31.523C96.474,33.669 97.088,35.885 97.492,38.145C97.9,40.45 98.103,42.788 98.099,45.129C98.099,49.843 98.099,52.386 98.101,52.695C98.111,55.112 98.124,57.474 98.142,59.78L98.142,59.804C98.152,61.903 98.287,64 98.546,66.083C98.794,68.109 99.166,70.117 99.661,72.097L99.665,72.096C100.146,73.985 100.805,75.824 101.632,77.589C102.505,79.445 103.538,81.222 104.718,82.9L104.724,82.896C105.919,84.593 107.415,86.269 109.212,87.923C111.067,89.632 113.222,91.306 115.673,92.946C116.522,93.514 117.033,94.471 117.033,95.493C117.033,97.174 115.649,98.558 113.968,98.558C113.967,98.558 113.967,98.558 113.966,98.558L113.966,98.568L3.076,98.568C1.389,98.567 0.001,97.179 0.001,95.492C0.001,94.417 0.565,93.417 1.485,92.86C3.976,91.174 6.115,89.506 7.901,87.852C9.678,86.206 11.166,84.522 12.363,82.797C12.399,82.746 12.435,82.697 12.473,82.649C13.6,81.008 14.592,79.278 15.44,77.476C16.29,75.664 16.972,73.778 17.477,71.841C17.952,70.001 18.314,68.062 18.565,66.029C18.82,63.926 18.947,61.81 18.943,59.692L18.943,45.129C18.943,42.789 19.153,40.458 19.572,38.142C19.979,35.871 20.598,33.643 21.421,31.487C22.224,29.38 23.195,27.342 24.326,25.391C25.449,23.457 26.729,21.619 28.154,19.895L28.171,19.875L28.167,19.871C31.041,16.434 34.472,13.506 38.318,11.208C40.27,10.04 42.32,9.046 44.446,8.237C45.925,7.676 47.438,7.207 48.975,6.832C49.504,4.981 50.412,3.483 51.697,2.336C53.471,0.752 55.81,-0.025 58.712,0C61.587,0.025 63.906,0.821 65.664,2.391C66.953,3.542 67.865,5.034 68.398,6.868ZM70.594,14.03C68.906,13.363 67.166,12.835 65.391,12.453C64.003,12.272 62.905,11.166 62.735,9.776C62.569,8.435 62.184,7.495 61.581,6.957C60.976,6.416 60.003,6.14 58.664,6.128C57.334,6.116 56.373,6.374 55.782,6.902C55.182,7.438 54.802,8.387 54.642,9.752L54.639,9.752C54.487,11.086 53.475,12.172 52.155,12.419C48.381,13.129 44.762,14.5 41.465,16.47C38.211,18.418 35.307,20.9 32.876,23.811L32.872,23.808C31.668,25.27 30.587,26.828 29.638,28.467C28.675,30.133 27.848,31.875 27.165,33.674C26.473,35.471 25.95,37.329 25.605,39.224C25.259,41.173 25.088,43.15 25.096,45.13L25.096,59.694C25.096,62.106 24.953,64.468 24.669,66.777C24.395,69.004 23.975,71.21 23.413,73.382C23.403,73.429 23.392,73.477 23.38,73.524C22.781,75.774 21.982,77.966 20.991,80.073C20.002,82.178 18.845,84.2 17.53,86.119C17.492,86.183 17.452,86.246 17.409,86.308C16.001,88.334 14.217,90.347 12.057,92.347L11.979,92.418L105.031,92.418C102.92,90.472 101.144,88.476 99.703,86.429L99.707,86.425L99.703,86.417C98.318,84.448 97.107,82.364 96.082,80.186C95.086,78.074 94.291,75.872 93.707,73.611L93.709,73.61L93.707,73.599C93.146,71.37 92.724,69.109 92.443,66.828C92.164,64.508 92.021,62.173 92.015,59.836L92.015,59.829C91.997,57.551 91.984,55.173 91.974,52.696C91.963,50.174 91.955,47.652 91.949,45.13C91.949,43.106 91.779,41.138 91.437,39.228C91.102,37.346 90.593,35.499 89.916,33.711L89.92,33.71L89.916,33.699C89.244,31.91 88.429,30.178 87.477,28.521C86.537,26.894 85.463,25.348 84.266,23.899L84.268,23.898C83.069,22.458 81.751,21.121 80.329,19.901C78.951,18.718 77.482,17.646 75.936,16.694C75.867,16.659 75.799,16.621 75.733,16.581C74.094,15.589 72.375,14.736 70.594,14.03Z" style="fill:white;fill-rule:nonzero;"/>
    <g transform="matrix(1,0,0,1,5.23461,-4.45876)">
        <g id="Layer1">
            <circle cx="99.099" cy="17.158" r="12.699" style="fill:rgb(20,232,124);"/>
        </g>
    </g>
</svg>
